<?xml version="1.0" standalone="no"?>
<!DOCTYPE svg PUBLIC "-//W3C//DTD SVG 20010904//EN"
 "http://www.w3.org/TR/2001/REC-SVG-20010904/DTD/svg10.dtd">
<svg version="1.0" xmlns="http://www.w3.org/2000/svg"
 width="896.000000pt" height="896.000000pt" viewBox="0 0 896.000000 896.000000"
 preserveAspectRatio="xMidYMid meet">
<metadata>
Created by potrace 1.14, written by Peter Selinger 2001-2017
</metadata>
<g transform="translate(0.000000,896.000000) scale(0.100000,-0.100000)"
fill="#000000" stroke="none">
<path d="M5476 7002 c-2 -2 -10 -5 -18 -6 -33 -7 -175 -93 -214 -130 -6 -6
-34 -30 -61 -53 -27 -23 -76 -67 -108 -97 -32 -31 -59 -56 -61 -56 -1 0 -32
-28 -67 -62 -90 -88 -220 -204 -282 -253 -106 -85 -149 -115 -161 -115 -8 0
-14 -4 -14 -9 0 -21 -322 -139 -425 -155 -12 -2 -68 -23 -115 -44 -100 -44
-210 -142 -450 -402 -58 -62 -141 -152 -185 -199 -117 -126 -399 -407 -478
-476 -38 -33 -74 -65 -81 -71 -7 -7 -61 -48 -122 -93 -60 -45 -114 -85 -119
-89 -17 -14 -197 -127 -230 -145 -44 -24 -295 -147 -299 -147 -2 0 -21 -8 -42
-17 -22 -9 -43 -18 -49 -19 -5 -2 -77 -30 -159 -63 -83 -34 -164 -66 -182 -71
-81 -27 -417 -202 -790 -411 -71 -39 -79 -44 -84 -49 -3 -3 -16 -11 -30 -18
-14 -6 -54 -30 -90 -52 -36 -22 -81 -47 -100 -57 -19 -10 -37 -21 -38 -25 -2
-5 -8 -8 -13 -8 -4 0 -79 -43 -164 -95 -86 -52 -159 -95 -161 -95 -3 0 -17 -9
-31 -20 -30 -24 -25 -25 23 -5 19 8 35 14 37 14 1 0 9 2 17 5 126 47 191 70
220 79 19 6 38 16 42 22 4 5 8 7 8 3 0 -3 28 5 62 19 35 13 68 26 73 27 12 3
20 7 140 53 50 19 99 38 110 43 11 4 52 20 90 35 147 58 282 120 302 141 72
71 507 319 648 369 28 9 57 20 65 23 8 3 24 6 35 6 64 5 179 36 250 67 11 4
56 22 100 40 44 17 85 34 90 39 6 5 13 9 18 9 4 0 28 9 53 21 26 11 48 20 50
20 2 0 23 9 47 20 23 10 66 28 94 39 112 44 148 75 276 246 109 145 148 184
280 277 56 40 104 75 107 78 3 3 25 21 50 41 25 20 55 45 66 55 12 11 45 39
74 64 29 25 64 55 76 68 13 12 25 22 28 22 5 0 20 13 125 113 61 58 117 146
142 222 50 148 166 282 260 300 19 3 90 7 159 9 74 1 134 7 147 14 12 7 48 35
80 63 53 47 117 85 136 81 4 -1 7 3 7 8 0 5 3 9 8 8 4 -1 32 4 62 10 76 17 85
18 165 28 83 9 71 6 118 27 84 37 199 69 250 70 140 4 160 -68 97 -343 -28
-123 -36 -222 -20 -261 21 -49 93 -72 170 -56 17 4 100 26 115 31 6 2 13 4 17
5 4 1 32 13 61 25 45 21 206 65 287 80 14 2 72 14 130 25 58 12 121 24 140 27
19 3 42 7 51 10 9 2 26 -4 38 -13 l21 -18 -29 -57 c-27 -52 -104 -161 -141
-198 -8 -8 -25 -29 -38 -45 -13 -17 -65 -75 -115 -129 -51 -55 -119 -129 -152
-165 -33 -36 -73 -80 -90 -97 -152 -162 -201 -236 -211 -327 -8 -71 35 -121
161 -186 174 -91 251 -157 300 -256 26 -53 31 -72 40 -130 7 -43 23 -161 31
-230 2 -16 8 -50 14 -75 5 -25 12 -56 14 -70 3 -14 5 -25 6 -25 1 0 4 -11 6
-25 6 -31 35 -111 46 -126 4 -6 5 -13 2 -17 -5 -5 40 -16 161 -37 66 -11 90
-16 185 -35 36 -7 80 -14 120 -21 19 -3 42 -7 50 -10 8 -3 33 -8 55 -11 22 -3
51 -9 63 -14 13 -5 27 -7 32 -4 5 3 11 1 15 -5 4 -6 10 -8 15 -5 5 3 21 1 35
-5 15 -6 42 -12 59 -15 32 -4 39 -6 121 -25 61 -14 78 -18 135 -30 25 -6 54
-12 65 -15 11 -3 29 -7 40 -9 11 -3 85 -21 165 -42 80 -20 150 -37 155 -39 21
-4 75 -19 250 -67 216 -59 196 -54 270 -73 33 -9 67 -19 75 -22 8 -3 17 -7 20
-8 46 -11 86 -23 195 -57 72 -22 136 -43 143 -46 13 -4 17 24 5 30 -5 1 -19
26 -33 53 -14 28 -28 52 -31 55 -3 3 -23 37 -44 75 -21 39 -48 86 -59 105 -12
19 -27 46 -34 60 -11 24 -29 53 -45 74 -4 6 -25 36 -47 66 -22 30 -48 66 -58
79 -9 13 -21 29 -27 35 -5 6 -30 38 -54 71 -25 33 -47 62 -50 65 -3 3 -26 32
-51 65 -25 33 -47 62 -50 65 -3 3 -17 21 -30 40 -13 19 -27 37 -30 40 -3 3
-37 48 -75 100 -39 53 -80 109 -92 125 -28 37 -160 240 -190 292 -51 89 -147
294 -158 338 -1 6 -5 17 -8 25 -3 8 -15 48 -27 88 -20 69 -26 78 -113 163 -51
50 -116 112 -145 137 -127 113 -196 262 -302 657 -22 83 -44 166 -50 185 -5
19 -19 69 -30 110 -38 138 -44 155 -74 202 -33 52 -109 115 -153 127 -35 10
-90 -16 -126 -58 -13 -16 -28 -27 -31 -24 -3 4 -6 1 -6 -6 0 -7 -9 -26 -20
-41 -26 -36 -99 -177 -95 -182 2 -2 -11 -33 -28 -68 -93 -190 -189 -98 -457
437 -155 311 -165 327 -210 354 -28 17 -101 24 -114 11z"/>
<path d="M3627 3604 c-2 -2 -55 -6 -118 -9 -115 -5 -158 -8 -324 -21 -49 -4
-111 -8 -137 -8 -27 -1 -48 -3 -48 -6 0 -3 -17 -5 -38 -6 -20 0 -71 -4 -112
-8 -41 -5 -88 -10 -105 -11 -91 -9 -163 -17 -194 -21 -20 -3 -49 -7 -66 -8
-26 -3 -56 -7 -160 -21 -24 -3 -132 -17 -160 -20 -11 -1 -20 -4 -20 -5 0 -1
-16 -3 -35 -5 -19 -1 -51 -6 -70 -10 -19 -4 -53 -9 -75 -11 -22 -1 -49 -5 -60
-7 -11 -3 -40 -8 -65 -12 -25 -4 -52 -9 -60 -10 -8 -1 -35 -6 -60 -10 -25 -3
-58 -9 -75 -12 -16 -3 -39 -7 -50 -9 -87 -14 -84 -14 -190 -34 -27 -5 -61 -12
-75 -14 -14 -3 -35 -7 -46 -10 -12 -2 -38 -7 -59 -10 -20 -4 -56 -11 -78 -16
-23 -5 -55 -12 -72 -14 -16 -2 -30 -5 -30 -6 0 -1 -9 -3 -20 -5 -31 -6 -89
-18 -100 -21 -12 -3 -47 -11 -90 -20 -16 -3 -66 -14 -110 -25 -44 -10 -91 -21
-105 -23 -83 -17 -210 -52 -210 -59 0 -5 4 -6 9 -3 9 6 55 9 301 21 63 3 160
7 215 10 362 18 1415 25 1695 11 158 -7 293 -16 370 -22 76 -7 134 -12 210
-18 30 -3 73 -8 95 -11 22 -3 58 -8 80 -11 147 -19 277 -46 385 -79 47 -14 90
-27 95 -29 6 -2 24 -6 40 -11 17 -4 35 -11 40 -15 6 -4 23 -10 40 -14 31 -8
264 -98 370 -143 219 -93 423 -189 690 -324 246 -124 543 -280 570 -299 6 -4
39 -23 75 -42 36 -20 81 -45 100 -57 19 -11 42 -24 50 -28 8 -4 59 -33 112
-64 54 -32 100 -53 103 -48 4 5 11 7 16 4 5 -4 15 -3 21 1 7 5 19 9 28 10 8 2
33 8 55 14 62 17 78 20 105 24 14 3 33 7 42 11 16 6 686 180 738 191 13 3 67
16 120 30 52 14 105 27 117 30 77 15 75 17 -112 110 -189 94 -408 197 -445
209 -11 4 -58 24 -112 49 -31 14 -59 26 -62 26 -3 0 -29 11 -58 24 -29 13
-152 63 -273 111 -121 48 -229 90 -240 95 -39 16 -140 55 -145 56 -6 1 -38 13
-65 24 -45 19 -472 172 -630 227 -55 18 -149 50 -210 69 -60 19 -118 39 -127
44 -10 6 -24 10 -32 10 -8 0 -18 5 -21 11 -5 7 3 9 24 5 60 -11 88 -15 211
-30 27 -4 103 -16 135 -22 11 -3 36 -6 55 -9 19 -2 46 -6 60 -9 14 -4 43 -8
65 -11 22 -2 51 -7 65 -10 14 -2 50 -9 80 -15 30 -5 67 -12 83 -15 15 -3 39
-7 55 -10 15 -3 38 -8 52 -10 14 -3 39 -8 55 -11 73 -13 374 -76 520 -109 88
-19 169 -37 180 -40 38 -8 61 -13 225 -55 91 -23 214 -55 273 -71 60 -16 116
-31 125 -33 10 -2 24 -6 32 -9 8 -3 85 -26 170 -51 85 -24 227 -67 315 -96 88
-28 165 -52 170 -54 6 -2 17 -5 25 -8 76 -28 112 -40 123 -42 6 -2 23 -7 37
-13 14 -5 61 -22 105 -38 44 -15 86 -32 93 -37 6 -6 12 -8 12 -5 0 3 16 -1 35
-9 20 -8 39 -12 44 -10 9 6 222 64 261 72 14 2 32 7 40 10 8 3 26 8 40 10 14
3 36 9 50 14 14 5 34 11 45 13 11 2 40 9 65 16 25 7 52 15 60 17 8 2 51 13 95
24 43 11 86 22 95 26 13 5 -299 116 -471 166 -30 9 -101 31 -159 48 -58 18
-113 33 -123 35 -10 2 -32 9 -50 14 -74 24 -139 42 -247 71 -63 17 -149 40
-190 51 -41 12 -82 22 -90 24 -8 2 -98 24 -200 49 -208 52 -445 108 -475 112
-11 1 -20 3 -20 4 0 1 -9 3 -20 5 -11 2 -86 18 -165 35 -80 17 -163 34 -184
36 -22 3 -43 7 -47 9 -4 3 -24 7 -44 11 -21 3 -47 8 -59 10 -22 5 -54 12 -96
20 -14 2 -47 7 -75 10 -27 3 -53 8 -56 10 -4 2 -24 6 -45 10 -22 3 -50 7 -64
10 -14 2 -41 7 -60 9 -19 3 -44 8 -56 10 -11 3 -40 7 -65 10 -24 3 -55 7 -68
10 -27 5 -157 23 -296 41 -22 3 -51 7 -65 9 -14 2 -51 6 -82 9 -32 3 -77 9
-100 12 -24 3 -59 7 -78 8 -168 14 -208 18 -230 22 -29 5 -174 14 -276 18 -39
2 -75 5 -80 8 -9 6 -971 7 -977 2z"/>
</g>
</svg>
