<?xml version="1.0" encoding="utf-8"?>
<!-- Generator: Adobe Illustrator 24.1.2, SVG Export Plug-In . SVG Version: 6.00 Build 0)  -->
<svg version="1.1" id="Calque_1" xmlns="http://www.w3.org/2000/svg" xmlns:xlink="http://www.w3.org/1999/xlink" x="0px" y="0px"
	 viewBox="0 0 329.5 93.9" style="enable-background:new 0 0 329.5 93.9;" xml:space="preserve">
<style type="text/css">
	.st0{fill:#FFB971;}
	.st1{fill:#111111;}
	.st2{font-family:'Poppins-Regular';}
	.st3{font-size:32px;}
</style>
<rect class="st0" width="329.5" height="93.9"/>
<g id="SvgjsG2624_1_" transform="matrix(0.1016260162601626,0,0,0.1016260162601626,0,5.029021937672685)">
	<g>
		<path class="st1" d="M207.2,469c0,0,78.2-48,107-59c28.8-11.1,45.8-17,73.8-38.4c28.8-22.1,64.9-67.2,77.5-76.7
			c12.5-8.9,12.5-5.9,36.2-14c29.5-10.3,70.1-72.3,85.6-54.6c8.9,11.1,32.5,79,42.8,50.9c4.4-11.8,14-31,23.6-23.6
			c10.3,8.1,8.1,6.6,18.4,44.3c10.3,37.6,14.8,35.4,28,48.7c14,12.5,3.7,6.6,18.4,36.2c15.5,29.5,45.8,62.7,56.8,80.4
			c7.4,13.3,13.3,23.6,15.5,27.3c-32.5-10.3-93.7-28-164.6-39.8c-6.6-12.5-7.4-33.2-8.9-40.6c-5.9-29.5-44.3-20.7-31-45
			c4.4-9.6,65.7-65.7,45-62.7c-12.5,2.2-34.7,6.6-39.1,8.9c-62.7,26.6,14.8-62-48.7-34.7c-5.9,3-22.9,0-33.2,11.1
			c-9.6,11.1-22.9-2.2-34.7,11.1s-4.4,19.2-23.6,34.7c-18.4,15.5-17.7,16.2-33.9,27.3c-15.5,11.1-17.7,26.6-31.7,31.7
			c-13.3,5.2-39.1,17.7-48,17.7c-9.6,0-46.5,22.1-50.9,26.6C284,441.7,207.2,469,207.2,469z"/>
		<path class="st1" d="M233.1,486c0,0,156.4-42.1,299.6-31.7C675.1,464.6,812.3,514,812.3,514l-53.1,14
			c-115.1-43.5-233.9-56.8-233.9-56.8s113.6,36.2,179.3,71.6l-89.3,22.9c0,0-92.2-55.3-154.2-73.1C399.8,474.9,233.1,486,233.1,486z
			"/>
	</g>
</g>
<text transform="matrix(1 0 0 1 105.5998 54.869)" class="st2 st3">Comptrek</text>
</svg>
